<svg version="1.1" viewBox="0.0 0.0 100.0 176.0734908136483" fill="none" stroke="none" stroke-linecap="square" stroke-miterlimit="10" xmlns:xlink="http://www.w3.org/1999/xlink" xmlns="http://www.w3.org/2000/svg"><clipPath id="p.0"><path d="m0 0l100.0 0l0 176.07349l-100.0 0l0 -176.07349z" clip-rule="nonzero"/></clipPath><g clip-path="url(#p.0)"><path fill="#000000" fill-opacity="0.0" d="m0 0l100.0 0l0 176.07349l-100.0 0z" fill-rule="evenodd"/><path fill="#000000" fill-opacity="0.0" d="m3.2719831 0l94.29922 0l0 37.952755l-94.29922 0z" fill-rule="evenodd"/><path fill="#3d85c6" d="m36.026463 13.478804l3.75 0q1.28125 0 1.953125 0.1875q0.890625 0.265625 1.53125 0.953125q0.640625 0.671875 0.96875 1.65625q0.34375 0.96875 0.34375 2.390625q0 1.265625 -0.3125 2.171875q-0.390625 1.109375 -1.09375 1.796875q-0.546875 0.53125 -1.453125 0.8125q-0.671875 0.21875 -1.8125 0.21875l-3.875 0l0 -10.1875zm2.0625 1.71875l0 6.75l1.53125 0q0.859375 0 1.234375 -0.09375q0.5 -0.125 0.828125 -0.421875q0.34375 -0.296875 0.546875 -0.984375q0.203125 -0.6875 0.203125 -1.875q0 -1.171875 -0.203125 -1.796875q-0.203125 -0.640625 -0.578125 -1.0q-0.375 -0.359375 -0.953125 -0.484375q-0.4375 -0.09375 -1.6875 -0.09375l-0.921875 0zm9.670242 3.34375l-1.78125 -0.328125q0.296875 -1.0625 1.03125 -1.578125q0.734375 -0.515625 2.171875 -0.515625q1.3125 0 1.9375 0.3125q0.640625 0.3125 0.90625 0.78125q0.265625 0.46875 0.265625 1.75l-0.03125 2.28125q0 0.96875 0.09375 1.4375q0.109375 0.453125 0.359375 0.984375l-1.9375 0q-0.078125 -0.1875 -0.1875 -0.578125q-0.046875 -0.171875 -0.0625 -0.234375q-0.5 0.5 -1.078125 0.75q-0.5625 0.234375 -1.21875 0.234375q-1.125 0 -1.796875 -0.625q-0.65625 -0.625 -0.65625 -1.5625q0 -0.625 0.296875 -1.109375q0.3125 -0.5 0.84375 -0.75q0.546875 -0.265625 1.5625 -0.46875q1.359375 -0.25 1.890625 -0.46875l0 -0.203125q0 -0.5625 -0.28125 -0.796875q-0.28125 -0.234375 -1.046875 -0.234375q-0.515625 0 -0.8125 0.203125q-0.296875 0.203125 -0.46875 0.71875zm2.609375 1.578125q-0.375 0.125 -1.1875 0.296875q-0.8125 0.171875 -1.0625 0.34375q-0.390625 0.265625 -0.390625 0.6875q0 0.40625 0.3125 0.71875q0.3125 0.296875 0.78125 0.296875q0.53125 0 1.0 -0.359375q0.359375 -0.265625 0.46875 -0.640625q0.078125 -0.25 0.078125 -0.953125l0 -0.390625zm7.2289886 -3.828125l0 1.546875l-1.328125 0l0 2.984375q0 0.890625 0.03125 1.046875q0.046875 0.15625 0.171875 0.25q0.140625 0.09375 0.328125 0.09375q0.28125 0 0.796875 -0.1875l0.15625 1.515625q-0.671875 0.296875 -1.546875 0.296875q-0.515625 0 -0.953125 -0.171875q-0.421875 -0.1875 -0.625 -0.46875q-0.1875 -0.28125 -0.265625 -0.765625q-0.0625 -0.34375 -0.0625 -1.375l0 -3.21875l-0.890625 0l0 -1.546875l0.890625 0l0 -1.46875l1.96875 -1.140625l0 2.609375l1.328125 0zm2.818283 2.25l-1.78125 -0.328125q0.296875 -1.0625 1.03125 -1.578125q0.734375 -0.515625 2.171875 -0.515625q1.3125 0 1.9375 0.3125q0.6406212 0.3125 0.9062462 0.78125q0.265625 0.46875 0.265625 1.75l-0.03125 2.28125q0 0.96875 0.09375 1.4375q0.109375 0.453125 0.359375 0.984375l-1.9374962 0q-0.078125 -0.1875 -0.1875 -0.578125q-0.046875 -0.171875 -0.0625 -0.234375q-0.5 0.5 -1.078125 0.75q-0.5625 0.234375 -1.21875 0.234375q-1.125 0 -1.796875 -0.625q-0.65625 -0.625 -0.65625 -1.5625q0 -0.625 0.296875 -1.109375q0.3125 -0.5 0.84375 -0.75q0.546875 -0.265625 1.5625 -0.46875q1.359375 -0.25 1.890625 -0.46875l0 -0.203125q0 -0.5625 -0.28125 -0.796875q-0.28125 -0.234375 -1.046875 -0.234375q-0.515625 0 -0.8125 0.203125q-0.296875 0.203125 -0.46875 0.71875zm2.609375 1.578125q-0.375 0.125 -1.1875 0.296875q-0.8125 0.171875 -1.0625 0.34375q-0.390625 0.265625 -0.390625 0.6875q0 0.40625 0.3125 0.71875q0.3125 0.296875 0.78125 0.296875q0.53125 0 1.0 -0.359375q0.359375 -0.265625 0.46875 -0.640625q0.078125 -0.25 0.078125 -0.953125l0 -0.390625z" fill-rule="nonzero"/><path fill="#000000" fill-opacity="0.0" d="m4.2355223 123.50954l91.968506 0l0 55.2126l-91.968506 0z" fill-rule="evenodd"/><path fill="#cc0000" d="m32.673153 147.17584l-2.4375 -10.1875l2.109375 0l1.53125 7.0l1.859375 -7.0l2.453125 0l1.78125 7.109375l1.5625 -7.109375l2.078125 0l-2.46875 10.1875l-2.1875 0l-2.03125 -7.625l-2.015625 7.625l-2.234375 0zm11.256027 -3.796875q0 -0.96875 0.484375 -1.875q0.484375 -0.921875 1.359375 -1.390625q0.875 -0.484375 1.96875 -0.484375q1.671875 0 2.734375 1.09375q1.078125 1.078125 1.078125 2.734375q0 1.6875 -1.078125 2.796875q-1.078125 1.09375 -2.71875 1.09375q-1.015625 0 -1.9375 -0.453125q-0.921875 -0.46875 -1.40625 -1.34375q-0.484375 -0.890625 -0.484375 -2.171875zm2.015625 0.109375q0 1.09375 0.515625 1.6875q0.515625 0.578125 1.28125 0.578125q0.765625 0 1.28125 -0.578125q0.515625 -0.59375 0.515625 -1.703125q0 -1.078125 -0.515625 -1.65625q-0.515625 -0.59375 -1.28125 -0.59375q-0.765625 0 -1.28125 0.59375q-0.515625 0.578125 -0.515625 1.671875zm9.007431 3.6875l-1.953125 0l0 -7.375l1.8125 0l0 1.046875q0.46875 -0.75 0.84375 -0.984375q0.375 -0.234375 0.84375 -0.234375q0.671875 0 1.28125 0.359375l-0.609375 1.703125q-0.484375 -0.3125 -0.90625 -0.3125q-0.421875 0 -0.703125 0.234375q-0.28125 0.21875 -0.453125 0.8125q-0.15625 0.59375 -0.15625 2.46875l0 2.28125zm3.6644592 0l0 -10.1875l1.953125 0l0 10.1875l-1.953125 0zm10.736019 0l-1.8125 0l0 -1.078125q-0.453125 0.625 -1.078125 0.9375q-0.609375 0.3125 -1.234375 0.3125q-1.2812462 0 -2.1874962 -1.03125q-0.90625 -1.03125 -0.90625 -2.859375q0 -1.875 0.875 -2.84375q0.890625 -0.984375 2.2499962 -0.984375q1.234375 0 2.140625 1.03125l0 -3.671875l1.953125 0l0 10.1875zm-5.21875 -3.84375q0 1.171875 0.328125 1.703125q0.46875 0.765625 1.3125 0.765625q0.6875 0 1.15625 -0.5625q0.46875 -0.578125 0.46875 -1.71875q0 -1.28125 -0.46875 -1.828125q-0.453125 -0.5625 -1.15625 -0.5625q-0.703125 0 -1.171875 0.546875q-0.46875 0.546875 -0.46875 1.65625z" fill-rule="nonzero"/><path fill="#cc0000" d="m30.660542 164.25871l0 -10.1875l3.09375 0l1.84375 6.953125l1.828125 -6.953125l3.078125 0l0 10.1875l-1.90625 0l0 -8.015625l-2.015625 8.015625l-1.984375 0l-2.015625 -8.015625l0 8.015625l-1.921875 0zm11.419846 -3.796875q0 -0.96875 0.484375 -1.875q0.484375 -0.921875 1.359375 -1.390625q0.875 -0.484375 1.96875 -0.484375q1.671875 0 2.734375 1.09375q1.078125 1.078125 1.078125 2.734375q0 1.6875 -1.078125 2.796875q-1.078125 1.09375 -2.71875 1.09375q-1.015625 0 -1.9375 -0.453125q-0.921875 -0.46875 -1.40625 -1.34375q-0.484375 -0.890625 -0.484375 -2.171875zm2.015625 0.109375q0 1.09375 0.515625 1.6875q0.515625 0.578125 1.28125 0.578125q0.765625 0 1.28125 -0.578125q0.515625 -0.59375 0.515625 -1.703125q0 -1.078125 -0.515625 -1.65625q-0.515625 -0.59375 -1.28125 -0.59375q-0.765625 0 -1.28125 0.59375q-0.515625 0.578125 -0.515625 1.671875zm13.913681 3.6875l-1.8125 0l0 -1.078125q-0.453125 0.625 -1.078125 0.9375q-0.609375 0.3125 -1.234375 0.3125q-1.28125 0 -2.1875 -1.03125q-0.90625 -1.03125 -0.90625 -2.859375q0 -1.875 0.875 -2.84375q0.890625 -0.984375 2.25 -0.984375q1.234375 0 2.140625 1.03125l0 -3.671875l1.953125 0l0 10.1875zm-5.21875 -3.84375q0 1.171875 0.328125 1.703125q0.46875 0.765625 1.3125 0.765625q0.6875 0 1.15625 -0.5625q0.46875 -0.578125 0.46875 -1.71875q0 -1.28125 -0.46875 -1.828125q-0.453125 -0.5625 -1.15625 -0.5625q-0.703125 0 -1.171875 0.546875q-0.46875 0.546875 -0.46875 1.65625zm11.413677 1.5l1.953125 0.328125q-0.390625 1.0625 -1.203125 1.625q-0.796875 0.5625 -2.0156212 0.5625q-1.921875 0 -2.84375 -1.265625q-0.734375 -1.0 -0.734375 -2.546875q0 -1.828125 0.953125 -2.859375q0.96875 -1.046875 2.4375 -1.046875q1.6406212 0 2.5937462 1.09375q0.953125 1.078125 0.90625 3.328125l-4.890621 0q0.015625 0.859375 0.46875 1.34375q0.453125 0.484375 1.125 0.484375q0.46875 0 0.78125 -0.25q0.3124962 -0.25 0.4687462 -0.796875zm0.109375 -1.984375q-0.015625 -0.84375 -0.4374962 -1.28125q-0.421875 -0.4375 -1.015625 -0.4375q-0.640625 0 -1.0625 0.453125q-0.40625 0.46875 -0.40625 1.265625l2.9218712 0zm3.5258636 4.328125l0 -10.1875l1.953125 0l0 10.1875l-1.953125 0z" fill-rule="nonzero"/><path fill="#000000" fill-opacity="0.0" d="m9.191825 53.611702l0 0c7.625066 -14.737602 23.3891 -24.02436 40.599392 -23.91753c17.210293 0.10682869 32.84663 9.588501 40.27052 24.419514l-40.5627 18.52446z" fill-rule="evenodd"/><path fill="#000000" fill-opacity="0.0" d="m9.191825 53.611702l0 0c7.625066 -14.737602 23.3891 -24.02436 40.599392 -23.91753c17.210293 0.10682869 32.84663 9.588501 40.27052 24.419514" fill-rule="evenodd"/><path stroke="#3d85c6" stroke-width="3.202099737532808" stroke-linejoin="round" stroke-linecap="butt" d="m9.191825 53.611702l0 0c7.625066 -14.737602 23.3891 -24.02436 40.59939 -23.91753c8.605148 0.05341339 16.81681 2.4505386 23.80516 6.6881905c3.4941788 2.1188202 6.682541 4.697777 9.461334 7.6739655c0.69470215 0.74404144 1.3638077 1.5129166 2.0056915 2.3056374c0.16047668 0.19817734 0.31924438 0.39784622 0.47628784 0.5989914l0.33200836 0.43313217" fill-rule="evenodd"/><path fill="#3d85c6" stroke="#3d85c6" stroke-width="3.202099737532808" stroke-linecap="butt" d="m85.8717 47.394093l-2.5525742 -0.5918503l4.2657394 3.3392563l-1.121315 -5.29998z" fill-rule="evenodd"/><path fill="#000000" fill-opacity="0.0" d="m89.80496 100.20142l0 0c-7.6250687 14.737602 -23.3891 24.02436 -40.599392 23.917534c-17.210293 -0.10682678 -32.846634 -9.588501 -40.270523 -24.419518l40.5627 -18.52446z" fill-rule="evenodd"/><path fill="#000000" fill-opacity="0.0" d="m89.80496 100.20142l0 0c-7.6250687 14.737602 -23.3891 24.02436 -40.599392 23.917534c-17.210293 -0.10682678 -32.846634 -9.588501 -40.270523 -24.419518" fill-rule="evenodd"/><path stroke="#cc0000" stroke-width="3.202099737532808" stroke-linejoin="round" stroke-linecap="butt" d="m89.80496 100.20142l0 0c-7.6250687 14.737602 -23.3891 24.02436 -40.599392 23.917534c-8.6051445 -0.05341339 -16.816803 -2.4505386 -23.805162 -6.6881866c-3.4941788 -2.1188278 -6.6825314 -4.697777 -9.461334 -7.6739655c-0.6947012 -0.7440491 -1.3638039 -1.5129166 -2.0056896 -2.3056412c-0.16047192 -0.19818115 -0.31924248 -0.39785004 -0.47628593 -0.59898376l-0.33200836 -0.43314362" fill-rule="evenodd"/><path fill="#cc0000" stroke="#cc0000" stroke-width="3.202099737532808" stroke-linecap="butt" d="m13.125091 106.41904l2.5525742 0.5918503l-4.2657347 -3.3392563l1.1213102 5.29998z" fill-rule="evenodd"/></g></svg>